<?xml version="1.0" encoding="utf-8"?>
<!-- Generator: Adobe Illustrator 16.0.4, SVG Export Plug-In . SVG Version: 6.00 Build 0)  -->
<!DOCTYPE svg PUBLIC "-//W3C//DTD SVG 1.1//EN" "http://www.w3.org/Graphics/SVG/1.1/DTD/svg11.dtd">
<svg version="1.1" id="Layer_1" xmlns="http://www.w3.org/2000/svg" xmlns:xlink="http://www.w3.org/1999/xlink" x="0px" y="0px"
	 width="100px" height="100px" viewBox="0 0 100 100" enable-background="new 0 0 100 100" xml:space="preserve">
<g>
	<path fill="#00BF9A" d="M88.338,7.488l11.137,11.139L69.98,48.118l29.493,29.494L88.338,88.748L48.982,49.392l-1.271-1.271
		l1.271-1.277L88.338,7.488z M94.42,18.627l-6.082-6.085L52.887,47.993l-0.005,0.248l35.456,35.454l6.082-6.082L64.927,48.118
		L94.42,18.627z"/>
</g>
<g>
	<path fill="#00BF9A" d="M10.134,88.751L-1.001,77.612l29.494-29.491L-1,18.627L10.134,7.492L49.49,46.848l1.271,1.271l-1.271,1.277
		L10.134,88.751z M4.053,77.612l6.081,6.085l35.453-35.451l0.005-0.248L10.134,12.545l-6.081,6.082l29.493,29.494L4.053,77.612z"/>
</g>
</svg>
