<?xml version="1.0" encoding="utf-8"?>
<!-- Generator: Adobe Illustrator 16.0.4, SVG Export Plug-In . SVG Version: 6.00 Build 0)  -->
<!DOCTYPE svg PUBLIC "-//W3C//DTD SVG 1.1//EN" "http://www.w3.org/Graphics/SVG/1.1/DTD/svg11.dtd">
<svg version="1.1" id="Layer_1" xmlns="http://www.w3.org/2000/svg" xmlns:xlink="http://www.w3.org/1999/xlink" x="0px" y="0px"
	 width="100px" height="100px" viewBox="0 0 100 100" enable-background="new 0 0 100 100" xml:space="preserve">
<path fill="#00BF9A" d="M95.912,17.067L83.251,4.404c-1.75-1.752-4.075-2.718-6.553-2.718c-2.477,0-4.802,0.966-6.552,2.716
	L10.78,63.953L1.409,98.905l35.198-9.428l59.301-59.305c1.754-1.752,2.724-4.079,2.724-6.555
	C98.632,21.143,97.662,18.815,95.912,17.067z M15.636,65.038L60.55,19.951l19.817,19.813l-45,45.005L15.636,65.038z M13.754,69.105
	l17.464,17.463L17.34,90.282l-7.308-7.309L13.754,69.105z M92.934,27.196l-6.38,6.382L66.729,13.765l6.396-6.388
	c1.905-1.915,5.241-1.91,7.151,0l12.661,12.666c0.958,0.957,1.487,2.227,1.487,3.576C94.425,24.967,93.896,26.237,92.934,27.196z"/>
</svg>
