<?xml version="1.0" encoding="utf-8"?>
<!-- Generator: Adobe Illustrator 16.0.4, SVG Export Plug-In . SVG Version: 6.00 Build 0)  -->
<!DOCTYPE svg PUBLIC "-//W3C//DTD SVG 1.1//EN" "http://www.w3.org/Graphics/SVG/1.1/DTD/svg11.dtd">
<svg version="1.1" id="Layer_1" xmlns="http://www.w3.org/2000/svg" xmlns:xlink="http://www.w3.org/1999/xlink" x="0px" y="0px"
	 width="100px" height="100px" viewBox="0 0 100 100" enable-background="new 0 0 100 100" xml:space="preserve">
<path fill="#00BF9A" d="M49.766,18.688c20.009,0,38.917,21.532,44.732,28.812c-5.815,7.28-24.724,28.812-44.732,28.812
	c-20.005,0-38.911-21.532-44.73-28.812C10.854,40.22,29.761,18.688,49.766,18.688 M49.766,14.68C24.218,14.68,1.088,45.978,0,47.469
	v0.062c1.088,1.491,24.218,32.788,49.766,32.788c25.55,0,48.682-31.297,49.77-32.788v-0.062
	C98.447,45.978,75.315,14.68,49.766,14.68L49.766,14.68z M49.766,26.688c11.479,0,20.815,9.336,20.815,20.812
	c0,11.478-9.337,20.812-20.815,20.812c-11.476,0-20.811-9.334-20.811-20.812C28.955,36.024,38.29,26.688,49.766,26.688
	 M49.766,22.681c-13.707,0-24.819,11.112-24.819,24.819c0,13.706,11.112,24.819,24.819,24.819c13.71,0,24.822-11.113,24.822-24.819
	C74.588,33.793,63.476,22.681,49.766,22.681L49.766,22.681z M49.766,37.116c-5.734,0-10.382,4.65-10.382,10.384
	c0,5.735,4.648,10.384,10.382,10.384c5.736,0,10.387-4.648,10.387-10.384C60.152,41.766,55.502,37.116,49.766,37.116z"/>
</svg>
